<?xml version="1.0" encoding="UTF-8" standalone="no"?>
<svg
   xmlns:dc="http://purl.org/dc/elements/1.1/"
   xmlns:cc="http://creativecommons.org/ns#"
   xmlns:rdf="http://www.w3.org/1999/02/22-rdf-syntax-ns#"
   xmlns:svg="http://www.w3.org/2000/svg"
   xmlns="http://www.w3.org/2000/svg"
   xmlns:sodipodi="http://sodipodi.sourceforge.net/DTD/sodipodi-0.dtd"
   xmlns:inkscape="http://www.inkscape.org/namespaces/inkscape"
   width="1126.1671"
   height="1816.8937"
   viewBox="323 71 608.41626 1003.7429"
   id="svg2985"
   version="1.1"
   inkscape:version="0.48.4 r9939"
   sodipodi:docname="vtr_flow.svg">
  <metadata
     id="metadata3287">
    <rdf:RDF>
      <cc:Work
         rdf:about="">
        <dc:format>image/svg+xml</dc:format>
        <dc:type
           rdf:resource="http://purl.org/dc/dcmitype/StillImage" />
      </cc:Work>
    </rdf:RDF>
  </metadata>
  <defs
     id="defs3285" />
  <sodipodi:namedview
     pagecolor="#ffffff"
     bordercolor="#666666"
     borderopacity="1"
     objecttolerance="10"
     gridtolerance="10"
     guidetolerance="10"
     inkscape:pageopacity="0"
     inkscape:pageshadow="2"
     inkscape:window-width="1920"
     inkscape:window-height="1178"
     id="namedview3283"
     showgrid="false"
     fit-margin-top="200"
     fit-margin-left="200"
     fit-margin-right="200"
     fit-margin-bottom="200"
     inkscape:zoom="0.49441298"
     inkscape:cx="790.42107"
     inkscape:cy="1094.1448"
     inkscape:window-x="1912"
     inkscape:window-y="-8"
     inkscape:window-maximized="1"
     inkscape:current-layer="svg2985" />
  <g
     id="g2987"
     transform="translate(105.7285,109.7012)">
    <polygon
       style="fill:#ff0000"
       points="330.452,131.578 351.773,73 524.09,73 502.77,131.578 "
       id="polygon2989" />
    <polygon
       style="fill:none;stroke:#000000;stroke-width:1.20000005"
       points="330.452,131.578 351.773,73 524.09,73 502.77,131.578 "
       id="polygon2991" />
    <text
       font-size="18.0622"
       style="font-size:18.06220055px;font-style:normal;font-weight:normal;text-anchor:middle;fill:#000000;font-family:sans-serif"
       x="427.271"
       y="109.05"
       id="text2993">
      <tspan
         x="427.271"
         y="109.05"
         id="tspan2995">architecture.xml</tspan>
    </text>
  </g>
  <g
     id="g2997"
     transform="translate(105.7285,109.7012)">
    <polygon
       style="fill:#ff0000"
       points="529.344,130.967 550.665,72.3888 704.982,72.3888 683.662,130.967 "
       id="polygon2999" />
    <polygon
       style="fill:none;stroke:#000000;stroke-width:1.20000005"
       points="529.344,130.967 550.665,72.3888 704.982,72.3888 683.662,130.967 "
       id="polygon3001" />
    <text
       font-size="18.0622"
       style="font-size:18.06220055px;font-style:normal;font-weight:normal;text-anchor:middle;fill:#000000;font-family:sans-serif"
       x="617.16302"
       y="108.439"
       id="text3003">
      <tspan
         x="617.16302"
         y="108.439"
         id="tspan3005">user_design.v</tspan>
    </text>
  </g>
  <g
     id="g3007"
     transform="translate(105.7285,109.7012)">
    <rect
       style="fill:#ffff00"
       x="532.12097"
       y="165.14"
       width="108.533"
       height="58.8871"
       id="rect3009" />
    <rect
       style="fill:none;stroke:#000000;stroke-width:1.20000005"
       x="532.12097"
       y="165.14"
       width="108.533"
       height="58.8871"
       id="rect3011" />
    <line
       style="fill:none;stroke:#000000;stroke-width:1.20000005"
       x1="542.974"
       y1="165.14"
       x2="542.974"
       y2="224.02699"
       id="line3013" />
    <line
       style="fill:none;stroke:#000000;stroke-width:1.20000005"
       x1="629.80103"
       y1="165.14"
       x2="629.80103"
       y2="224.02699"
       id="line3015" />
    <text
       font-size="18.0622"
       style="font-size:18.06220055px;font-style:normal;font-weight:normal;text-anchor:middle;fill:#000000;font-family:sans-serif"
       x="586.38702"
       y="201.35699"
       id="text3017">
      <tspan
         x="586.38702"
         y="201.35699"
         id="tspan3019">ODIN II</tspan>
    </text>
  </g>
  <g
     id="g3021"
     transform="translate(105.7285,109.7012)">
    <polyline
       style="fill:none;stroke:#000000;stroke-width:1.20000005"
       points="416.559,132.218 416.559,149.536 586.387,149.536 586.387,160.967 "
       id="polyline3023" />
    <polygon
       style="fill:#000000"
       points="587.887,160.217 586.387,163.217 584.887,160.217 586.387,160.967 "
       id="polygon3025" />
    <polygon
       style="fill:none;stroke:#000000;stroke-width:1.20000005"
       points="587.887,160.217 586.387,163.217 584.887,160.217 586.387,160.967 "
       id="polygon3027" />
  </g>
  <g
     id="g3029"
     transform="translate(105.7285,109.7012)">
    <polyline
       style="fill:none;stroke:#000000;stroke-width:1.20000005"
       points="606.503,130.967 606.503,149.539 586.387,149.539 586.387,160.97 "
       id="polyline3031" />
    <polygon
       style="fill:#000000"
       points="587.887,160.22 586.387,163.22 584.887,160.22 586.387,160.97 "
       id="polygon3033" />
    <polygon
       style="fill:none;stroke:#000000;stroke-width:1.20000005"
       points="587.887,160.22 586.387,163.22 584.887,160.22 586.387,160.97 "
       id="polygon3035" />
  </g>
  <g
     id="g3037"
     transform="translate(105.7285,109.7012)">
    <polygon
       style="fill:#00ff00"
       points="500.263,302.834 521.584,244.257 654.651,244.257 633.331,302.834 "
       id="polygon3039" />
    <polygon
       style="fill:none;stroke:#000000;stroke-width:1.20000005"
       points="500.263,302.834 521.584,244.257 654.651,244.257 633.331,302.834 "
       id="polygon3041" />
    <text
       font-size="18.0622"
       style="font-size:18.06220055px;font-style:normal;font-weight:normal;text-anchor:middle;fill:#000000;font-family:sans-serif"
       x="577.45697"
       y="280.30701"
       id="text3043">
      <tspan
         x="577.45697"
         y="280.30701"
         id="tspan3045">ud.odin.blif</tspan>
    </text>
  </g>
  <g
     id="g3047"
     transform="translate(105.7285,109.7012)">
    <rect
       style="fill:#ff0000"
       x="396.84601"
       y="810.133"
       width="80.150002"
       height="36.9333"
       id="rect3049" />
    <rect
       style="fill:none;stroke:#ffffff"
       x="396.84601"
       y="810.133"
       width="80.150002"
       height="36.9333"
       id="rect3051" />
    <text
       font-size="13.5467"
       style="font-size:13.54669952px;font-style:normal;font-weight:normal;text-anchor:middle;fill:#000000;font-family:sans-serif"
       x="436.92099"
       y="833.68298"
       id="text3053">
      <tspan
         x="436.92099"
         y="833.68298"
         id="tspan3055">user input</tspan>
    </text>
  </g>
  <g
     id="g3057"
     transform="translate(105.7285,109.7012)">
    <rect
       style="fill:#ffff00"
       x="484.496"
       y="800.09302"
       width="71"
       height="53.866699"
       id="rect3059" />
    <rect
       style="fill:none;stroke:#ffffff"
       x="484.496"
       y="800.09302"
       width="71"
       height="53.866699"
       id="rect3061" />
    <text
       font-size="13.5467"
       style="font-size:13.54669952px;font-style:normal;font-weight:normal;text-anchor:middle;fill:#000000;font-family:sans-serif"
       x="519.99597"
       y="823.64301"
       id="text3063">
      <tspan
         x="519.99597"
         y="823.64301"
         id="tspan3065">open src</tspan>
      <tspan
         x="519.99597"
         y="840.57599"
         id="tspan3067">tools</tspan>
    </text>
  </g>
  <g
     id="g3069"
     transform="translate(105.7285,109.7012)">
    <rect
       style="fill:#00ff00"
       x="564.52301"
       y="800.185"
       width="95.199997"
       height="53.866699"
       id="rect3071" />
    <rect
       style="fill:none;stroke:#ffffff"
       x="564.52301"
       y="800.185"
       width="95.199997"
       height="53.866699"
       id="rect3073" />
    <text
       font-size="13.5467"
       style="font-size:13.54669952px;font-style:normal;font-weight:normal;text-anchor:middle;fill:#000000;font-family:sans-serif"
       x="612.12299"
       y="823.73499"
       id="text3075">
      <tspan
         x="612.12299"
         y="823.73499"
         id="tspan3077">intermediate</tspan>
      <tspan
         x="612.12299"
         y="840.66901"
         id="tspan3079">outputs</tspan>
    </text>
  </g>
  <g
     id="g3081"
     transform="translate(105.7285,109.7012)">
    <line
       style="fill:none;stroke:#000000;stroke-width:1.20000005"
       x1="586.41199"
       y1="224.29201"
       x2="586.40601"
       y2="240.244"
       id="line3083" />
    <polygon
       style="fill:#000000"
       points="587.906,239.494 586.405,242.494 584.906,239.493 586.406,240.244 "
       id="polygon3085" />
    <polygon
       style="fill:none;stroke:#000000;stroke-width:1.20000005"
       points="587.906,239.494 586.405,242.494 584.906,239.493 586.406,240.244 "
       id="polygon3087" />
  </g>
  <g
     id="g3089"
     transform="translate(105.7285,109.7012)">
    <line
       style="fill:none;stroke:#000000;stroke-width:1.20000005"
       x1="575.38397"
       y1="303.36801"
       x2="575.38599"
       y2="320.10599"
       id="line3091" />
    <polygon
       style="fill:#000000"
       points="576.886,319.356 575.387,322.356 573.886,319.356 575.386,320.106 "
       id="polygon3093" />
    <polygon
       style="fill:none;stroke:#000000;stroke-width:1.20000005"
       points="576.886,319.356 575.387,322.356 573.886,319.356 575.386,320.106 "
       id="polygon3095" />
  </g>
  <g
     id="g3097"
     transform="translate(105.7285,109.7012)">
    <rect
       style="fill:#ffff00"
       x="542.69897"
       y="323.698"
       width="65.375"
       height="42.577801"
       id="rect3099" />
    <rect
       style="fill:none;stroke:#000000;stroke-width:1.20000005"
       x="542.69897"
       y="323.698"
       width="65.375"
       height="42.577801"
       id="rect3101" />
    <line
       style="fill:none;stroke:#000000;stroke-width:1.20000005"
       x1="549.237"
       y1="323.698"
       x2="549.237"
       y2="366.27499"
       id="line3103" />
    <line
       style="fill:none;stroke:#000000;stroke-width:1.20000005"
       x1="601.53699"
       y1="323.698"
       x2="601.53699"
       y2="366.27499"
       id="line3105" />
    <text
       font-size="18.0622"
       style="font-size:18.06220055px;font-style:normal;font-weight:normal;text-anchor:middle;fill:#000000;font-family:sans-serif"
       x="575.38702"
       y="351.76001"
       id="text3107">
      <tspan
         x="575.38702"
         y="351.76001"
         id="tspan3109">ABC</tspan>
    </text>
  </g>
  <g
     id="g3111"
     transform="translate(105.7285,109.7012)">
    <polygon
       style="fill:#00ff00"
       points="490.541,435.64 511.862,377.062 638.78,377.062 617.459,435.64 "
       id="polygon3113" />
    <polygon
       style="fill:none;stroke:#000000;stroke-width:1.20000005"
       points="490.541,435.64 511.862,377.062 638.78,377.062 617.459,435.64 "
       id="polygon3115" />
    <text
       font-size="18.0622"
       style="font-size:18.06220055px;font-style:normal;font-weight:normal;text-anchor:middle;fill:#000000;font-family:sans-serif"
       x="564.66101"
       y="413.112"
       id="text3117">
      <tspan
         x="564.66101"
         y="413.112"
         id="tspan3119">ud.abc.blif</tspan>
    </text>
  </g>
  <g
     id="g3121"
     transform="translate(105.7285,109.7012)">
    <line
       style="fill:none;stroke:#000000;stroke-width:1.20000005"
       x1="575.38702"
       y1="366.27499"
       x2="575.34302"
       y2="373.47"
       id="line3123" />
    <polygon
       style="fill:#000000"
       points="576.847,372.729 575.329,375.72 573.847,372.711 575.343,373.47 "
       id="polygon3125" />
    <polygon
       style="fill:none;stroke:#000000;stroke-width:1.20000005"
       points="576.847,372.729 575.329,375.72 573.847,372.711 575.343,373.47 "
       id="polygon3127" />
  </g>
  <g
     id="g3129"
     transform="translate(105.7285,109.7012)">
    <line
       style="fill:none;stroke:#000000;stroke-width:1.20000005"
       x1="554"
       y1="435.64001"
       x2="554.00098"
       y2="444.48001"
       id="line3131" />
    <polygon
       style="fill:#000000"
       points="555.501,443.73 554.001,446.73 552.501,443.73 554.001,444.48 "
       id="polygon3133" />
    <polygon
       style="fill:none;stroke:#000000;stroke-width:1.20000005"
       points="555.501,443.73 554.001,446.73 552.501,443.73 554.001,444.48 "
       id="polygon3135" />
  </g>
  <g
     id="g3137"
     transform="translate(105.7285,109.7012)">
    <rect
       style="fill:#ffff00"
       x="517.49103"
       y="448.745"
       width="73.25"
       height="42.577801"
       id="rect3139" />
    <rect
       style="fill:none;stroke:#000000;stroke-width:1.20000005"
       x="517.49103"
       y="448.745"
       width="73.25"
       height="42.577801"
       id="rect3141" />
    <line
       style="fill:none;stroke:#000000;stroke-width:1.20000005"
       x1="524.81598"
       y1="448.745"
       x2="524.81598"
       y2="491.323"
       id="line3143" />
    <line
       style="fill:none;stroke:#000000;stroke-width:1.20000005"
       x1="583.41602"
       y1="448.745"
       x2="583.41602"
       y2="491.323"
       id="line3145" />
    <text
       font-size="18.0622"
       style="font-size:18.06220055px;font-style:normal;font-weight:normal;text-anchor:middle;fill:#000000;font-family:sans-serif"
       x="554.11603"
       y="476.80801"
       id="text3147">
      <tspan
         x="554.11603"
         y="476.80801"
         id="tspan3149">VPR</tspan>
    </text>
  </g>
  <g
     id="g3151"
     transform="translate(105.7285,109.7012)">
    <polygon
       style="fill:#00ff00"
       points="361.278,576.955 377.212,533.177 493.716,533.177 477.783,576.955 "
       id="polygon3153" />
    <polygon
       style="fill:none;stroke:#000000;stroke-width:1.20000005"
       points="361.278,576.955 377.212,533.177 493.716,533.177 477.783,576.955 "
       id="polygon3155" />
    <text
       font-size="18.0622"
       style="font-size:18.06220055px;font-style:normal;font-weight:normal;text-anchor:middle;fill:#000000;font-family:sans-serif"
       x="427.49701"
       y="561.82703"
       id="text3157">
      <tspan
         x="427.49701"
         y="561.82703"
         id="tspan3159">ud.place</tspan>
    </text>
  </g>
  <g
     id="g3161"
     transform="translate(105.7285,109.7012)">
    <polygon
       style="fill:#00ff00"
       points="482.494,576.948 498.428,533.17 615.432,533.17 599.499,576.948 "
       id="polygon3163" />
    <polygon
       style="fill:none;stroke:#000000;stroke-width:1.20000005"
       points="482.494,576.948 498.428,533.17 615.432,533.17 599.499,576.948 "
       id="polygon3165" />
    <text
       font-size="18.0622"
       style="font-size:18.06220055px;font-style:normal;font-weight:normal;text-anchor:middle;fill:#000000;font-family:sans-serif"
       x="548.96301"
       y="561.82001"
       id="text3167">
      <tspan
         x="548.96301"
         y="561.82001"
         id="tspan3169">ud.route</tspan>
    </text>
  </g>
  <g
     id="g3171"
     transform="translate(105.7285,109.7012)">
    <polygon
       style="fill:#00ff00"
       points="607.157,576.849 623.091,533.072 723.795,533.072 707.861,576.849 "
       id="polygon3173" />
    <polygon
       style="fill:none;stroke:#000000;stroke-width:1.20000005"
       points="607.157,576.849 623.091,533.072 723.795,533.072 707.861,576.849 "
       id="polygon3175" />
    <text
       font-size="18.0622"
       style="font-size:18.06220055px;font-style:normal;font-weight:normal;text-anchor:middle;fill:#000000;font-family:sans-serif"
       x="665.47601"
       y="561.72198"
       id="text3177">
      <tspan
         x="665.47601"
         y="561.72198"
         id="tspan3179">ud.net</tspan>
    </text>
  </g>
  <g
     id="g3181"
     transform="translate(105.7285,109.7012)">
    <polyline
       style="fill:none;stroke:#000000;stroke-width:1.20000005"
       points="416.643,149.493 467.067,149.493 467.067,470.034 513.9,470.034 "
       id="polyline3183" />
    <polygon
       style="fill:#000000"
       points="513.15,468.534 516.15,470.034 513.15,471.534 513.9,470.034 "
       id="polygon3185" />
    <polygon
       style="fill:none;stroke:#000000;stroke-width:1.20000005"
       points="513.15,468.534 516.15,470.034 513.15,471.534 513.9,470.034 "
       id="polygon3187" />
  </g>
  <g
     id="g3189"
     transform="translate(105.7285,109.7012)">
    <polyline
       style="fill:none;stroke:#000000;stroke-width:1.20000005"
       points="554.116,491.323 554.116,507.409 673.416,507.409 673.416,528.929 "
       id="polyline3191" />
    <polygon
       style="fill:#000000"
       points="674.916,528.179 673.416,531.179 671.916,528.179 673.416,528.929 "
       id="polygon3193" />
    <polygon
       style="fill:none;stroke:#000000;stroke-width:1.20000005"
       points="674.916,528.179 673.416,531.179 671.916,528.179 673.416,528.929 "
       id="polygon3195" />
  </g>
  <g
     id="g3197"
     transform="translate(105.7285,109.7012)">
    <line
       style="fill:none;stroke:#000000;stroke-width:1.20000005"
       x1="556.95001"
       y1="507.78101"
       x2="556.93298"
       y2="529.57898"
       id="line3199" />
    <polygon
       style="fill:#000000"
       points="558.434,528.83 556.931,531.829 555.434,528.827 556.933,529.579 "
       id="polygon3201" />
    <polygon
       style="fill:none;stroke:#000000;stroke-width:1.20000005"
       points="558.434,528.83 556.931,531.829 555.434,528.827 556.933,529.579 "
       id="polygon3203" />
  </g>
  <g
     id="g3205"
     transform="translate(105.7285,109.7012)">
    <polyline
       style="fill:none;stroke:#000000;stroke-width:1.20000005"
       points="554.845,507.418 554.845,507.413 435.464,507.413 435.464,529.585 "
       id="polyline3207" />
    <polygon
       style="fill:#000000"
       points="436.964,528.835 435.464,531.835 433.964,528.835 435.464,529.585 "
       id="polygon3209" />
    <polygon
       style="fill:none;stroke:#000000;stroke-width:1.20000005"
       points="436.964,528.835 435.464,531.835 433.964,528.835 435.464,529.585 "
       id="polygon3211" />
  </g>
  <g
     id="g3213"
     transform="translate(105.7285,109.7012)">
    <rect
       style="fill:#ffff00"
       x="430.29099"
       y="640.745"
       width="244.948"
       height="42.577801"
       id="rect3215" />
    <rect
       style="fill:none;stroke:#000000;stroke-width:1.20000005"
       x="430.29099"
       y="640.745"
       width="244.948"
       height="42.577801"
       id="rect3217" />
    <line
       style="fill:none;stroke:#000000;stroke-width:1.20000005"
       x1="454.78601"
       y1="640.745"
       x2="454.78601"
       y2="683.323"
       id="line3219" />
    <line
       style="fill:none;stroke:#000000;stroke-width:1.20000005"
       x1="650.74402"
       y1="640.745"
       x2="650.74402"
       y2="683.323"
       id="line3221" />
    <text
       font-size="18.0622"
       style="font-size:18.06220055px;font-style:normal;font-weight:normal;text-anchor:middle;fill:#000000;font-family:sans-serif"
       x="552.76501"
       y="668.80701"
       id="text3223">
      <tspan
         x="552.76501"
         y="668.80701"
         id="tspan3225">FPGA Gen and Bit Gen</tspan>
    </text>
  </g>
  <g
     id="g3227"
     transform="translate(105.7285,109.7012)">
    <polyline
       style="fill:none;stroke:#000000;stroke-width:1.20000005"
       points="417.142,149.531 323.824,149.531 323.824,662.034 426.699,662.034 "
       id="polyline3229" />
    <polygon
       style="fill:#000000"
       points="425.949,660.534 428.949,662.034 425.949,663.534 426.699,662.034 "
       id="polygon3231" />
    <polygon
       style="fill:none;stroke:#000000;stroke-width:1.20000005"
       points="425.949,660.534 428.949,662.034 425.949,663.534 426.699,662.034 "
       id="polygon3233" />
  </g>
  <g
     id="g3235"
     transform="translate(105.7285,109.7012)">
    <polyline
       style="fill:none;stroke:#000000;stroke-width:1.20000005"
       points="419.53,576.955 419.53,603.066 552.765,603.066 552.765,637.153 "
       id="polyline3237" />
    <polygon
       style="fill:#000000"
       points="554.265,636.403 552.765,639.403 551.265,636.403 552.765,637.153 "
       id="polygon3239" />
    <polygon
       style="fill:none;stroke:#000000;stroke-width:1.20000005"
       points="554.265,636.403 552.765,639.403 551.265,636.403 552.765,637.153 "
       id="polygon3241" />
  </g>
  <line
     style="fill:none;stroke:#000000;stroke-width:1.20000005"
     x1="646.72449"
     y1="686.64917"
     x2="646.75354"
     y2="712.29016"
     id="line3243" />
  <polyline
     style="fill:none;stroke:#000000;stroke-width:1.20000005"
     points="657.509,576.849 657.509,603.037 552.814,603.037 552.814,617.935 "
     id="polyline3245"
     transform="translate(105.7285,109.7012)" />
  <g
     id="g3247"
     transform="translate(105.7285,109.7012)">
    <polygon
       style="fill:#00ff00"
       points="379.412,781.08 395.346,737.302 511.85,737.302 495.916,781.08 "
       id="polygon3249" />
    <polygon
       style="fill:none;stroke:#000000;stroke-width:1.20000005"
       points="379.412,781.08 395.346,737.302 511.85,737.302 495.916,781.08 "
       id="polygon3251" />
    <text
       font-size="18.0622"
       style="font-size:18.06220055px;font-style:normal;font-weight:normal;text-anchor:middle;fill:#000000;font-family:sans-serif"
       x="445.63101"
       y="765.95203"
       id="text3253">
      <tspan
         x="445.63101"
         y="765.95203"
         id="tspan3255">fpga.conf</tspan>
    </text>
  </g>
  <g
     id="g3257"
     transform="translate(105.7285,109.7012)">
    <polygon
       style="fill:#00ff00"
       points="539.675,780.388 555.609,736.61 672.113,736.61 656.179,780.388 "
       id="polygon3259" />
    <polygon
       style="fill:none;stroke:#000000;stroke-width:1.20000005"
       points="539.675,780.388 555.609,736.61 672.113,736.61 656.179,780.388 "
       id="polygon3261" />
    <text
       font-size="18.0622"
       style="font-size:18.06220055px;font-style:normal;font-weight:normal;text-anchor:middle;fill:#000000;font-family:sans-serif"
       x="605.89398"
       y="765.26001"
       id="text3263">
      <tspan
         x="605.89398"
         y="765.26001"
         id="tspan3265">ud.bs</tspan>
    </text>
  </g>
  <g
     id="g3267"
     transform="translate(105.7285,109.7012)">
    <polyline
       style="fill:none;stroke:#000000;stroke-width:1.20000005"
       points="552.765,683.323 552.765,710.151 613.861,710.151 613.861,733.019 "
       id="polyline3269" />
    <polygon
       style="fill:#000000"
       points="615.361,732.269 613.861,735.269 612.361,732.269 613.861,733.019 "
       id="polygon3271" />
    <polygon
       style="fill:none;stroke:#000000;stroke-width:1.20000005"
       points="615.361,732.269 613.861,735.269 612.361,732.269 613.861,733.019 "
       id="polygon3273" />
  </g>
  <g
     id="g3275"
     transform="translate(105.7285,109.7012)">
    <polyline
       style="fill:none;stroke:#000000;stroke-width:1.20000005"
       points="552.778,683.165 552.778,710.155 453.611,710.155 453.611,733.552 "
       id="polyline3277" />
    <polygon
       style="fill:#000000"
       points="455.111,732.802 453.611,735.802 452.111,732.802 453.611,733.552 "
       id="polygon3279" />
    <polygon
       style="fill:none;stroke:#000000;stroke-width:1.20000005"
       points="455.111,732.802 453.611,735.802 452.111,732.802 453.611,733.552 "
       id="polygon3281" />
  </g>
  <rect
     style="fill:none;stroke:#000000;stroke-width:2.07168748;stroke-linejoin:round;stroke-miterlimit:4;stroke-opacity:1;stroke-dasharray:8.2867499,8.2867499;stroke-dashoffset:0"
     id="rect3289"
     width="387.45816"
     height="458.44022"
     x="447.42313"
     y="266.56329" />
  <text
     xml:space="preserve"
     style="font-size:39.77639771px;font-style:normal;font-weight:normal;line-height:125%;letter-spacing:0px;word-spacing:0px;fill:#000000;fill-opacity:1;stroke:none;font-family:Sans"
     x="511.83789"
     y="462.41553"
     id="text4059"
     sodipodi:linespacing="125%"><tspan
       sodipodi:role="line"
       id="tspan4061"
       x="511.83789"
       y="462.41553"
       style="font-size:35.35680008px;text-align:center;text-anchor:middle">VTR</tspan><tspan
       sodipodi:role="line"
       x="511.83789"
       y="506.61154"
       id="tspan4063"
       style="font-size:35.35680008px;text-align:center;text-anchor:middle">FLOW</tspan></text>
</svg>
